<svg width="20" height="20" viewBox="0 0 20 20" fill="none" xmlns="http://www.w3.org/2000/svg">
<circle cx="10" cy="10" r="10" fill="#8247E5"/>
<g clip-path="url(#clip0_8361_27670)">
<path d="M13.6005 7.66766C13.3446 7.52522 13.0157 7.52522 12.7232 7.66766L10.6762 8.84273L9.28721 9.5905L7.27676 10.7656C7.02089 10.908 6.69191 10.908 6.39948 10.7656L4.82768 9.83976C4.5718 9.69733 4.38903 9.41246 4.38903 9.09199V7.31157C4.38903 7.02671 4.53525 6.74184 4.82768 6.5638L6.39948 5.67359C6.65535 5.53116 6.98433 5.53116 7.27676 5.67359L8.84856 6.59941C9.10444 6.74184 9.28721 7.02671 9.28721 7.34718V8.52226L10.6762 7.73887V6.52819C10.6762 6.24332 10.53 5.95846 10.2376 5.78042L7.31332 4.10682C7.05744 3.96439 6.72846 3.96439 6.43603 4.10682L3.43864 5.81602C3.14621 5.95846 3 6.24332 3 6.52819V9.87537C3 10.1602 3.14621 10.4451 3.43864 10.6231L6.39948 12.2967C6.65535 12.4392 6.98433 12.4392 7.27676 12.2967L9.28721 11.1573L10.6762 10.3739L12.6867 9.23442C12.9426 9.09199 13.2715 9.09199 13.564 9.23442L15.1358 10.1246C15.3916 10.2671 15.5744 10.5519 15.5744 10.8724V12.6528C15.5744 12.9377 15.4282 13.2226 15.1358 13.4006L13.6005 14.2908C13.3446 14.4332 13.0157 14.4332 12.7232 14.2908L11.1514 13.4006C10.8956 13.2582 10.7128 12.9733 10.7128 12.6528V11.5134L9.32376 12.2967V13.4718C9.32376 13.7567 9.46997 14.0415 9.7624 14.2196L12.7232 15.8932C12.9791 16.0356 13.3081 16.0356 13.6005 15.8932L16.5614 14.2196C16.8172 14.0772 17 13.7923 17 13.4718V10.089C17 9.80415 16.8538 9.51929 16.5614 9.34125L13.6005 7.66766Z" fill="white"/>
</g>
<defs>
<clipPath id="clip0_8361_27670">
<rect width="14" height="12" fill="white" transform="translate(3 4)"/>
</clipPath>
</defs>
</svg>
